<mxfile host="app.diagrams.net" modified="2024-03-13T17:31:04.600Z" agent="Mozilla/5.0 (Windows NT 10.0; Win64; x64) AppleWebKit/537.36 (KHTML, like Gecko) Chrome/122.0.0.0 Safari/537.36" version="24.0.5" etag="IrvX32IKcdHnbwcApcvU" type="github">
  <diagram name="Page-1" id="nx9GXuxce_miY-mBhRxb">
    <mxGraphModel>
      <root>
        <mxCell id="0" />
        <mxCell id="1" parent="0" />
      </root>
    </mxGraphModel>
  </diagram>
</mxfile>
